# xmcd
#
# Track frame offsets:
#	150
#	16575
#	33747
#	51537
#	76965
#	98256
#	120128
#	137977
#	154670
#
# Disc length: 2325 seconds
#
# Revision: 0
# Processed by: cddbd v1.5.2PL0 Copyright (c) Steve Scherf et al.
# Submitted via: EZCDAudioConverter 2.8.1.1
#
DISCID=62091309
DTITLE=Will Downing  - Chocolate Drops
DYEAR=2015
DGENRE=Soul
TTITLE0=This Song Is For You
TTITLE1=Never Say No To You 
TTITLE2=Till U Come Back
TTITLE3=Let's Get Closer
TTITLE4=Deep As The Ocean
TTITLE5=Run Away/ Fall In Love
TTITLE6=It's Real
TTITLE7=Saving All My Love For You
TTITLE8=Does Your Momma Know About Me
EXTD=
EXTT0=
EXTT1=
EXTT2=
EXTT3=
EXTT4=
EXTT5=
EXTT6=
EXTT7=
EXTT8=
PLAYORDER=
